HIERARCHY
ROOT Hips
{
	OFFSET	0.00	0.00	0.00
	CHANNELS 6 Xposition Yposition Zposition Zrotation Xrotation Yrotation
	JOINT LeftUpLeg
	{
		OFFSET	 0.126116	-0.014019	-0.065224
		CHANNELS 3 Zrotation Xrotation Yrotation
		JOINT LeftLeg
		{
			OFFSET	 0.000000	 0.000000	 0.569914
			CHANNELS 3 Zrotation Xrotation Yrotation
			JOINT LeftFoot
			{
				OFFSET	 0.000000	 0.000000	 0.544423
				CHANNELS 3 Zrotation Xrotation Yrotation
				JOINT LeftToeBase
				{
					OFFSET	 0.000000	 0.000000	 0.207117
					CHANNELS 3 Zrotation Xrotation Yrotation
					End Site
					{
						OFFSET	 0.000000	 0.000000	 0.207117
					}
				}
			}
		}
	}
	JOINT RightUpLeg
	{
		OFFSET	-0.124023	-0.008373	-0.065224
		CHANNELS 3 Zrotation Xrotation Yrotation
		JOINT RightLeg
		{
			OFFSET	 0.000000	 0.000000	 0.570047
			CHANNELS 3 Zrotation Xrotation Yrotation
			JOINT RightFoot
			{
				OFFSET	 0.000000	 0.000000	 0.544354
				CHANNELS 3 Zrotation Xrotation Yrotation
				JOINT RightToeBase
				{
					OFFSET	 0.000000	 0.000000	 0.207540
					CHANNELS 3 Zrotation Xrotation Yrotation
					End Site
					{
						OFFSET	 0.000000	 0.000000	 0.207540
					}
				}
			}
		}
	}
	JOINT Spine
	{
		OFFSET	 0.000184	-0.007763	 0.117403
		CHANNELS 3 Zrotation Xrotation Yrotation
		JOINT Spine1
		{
			OFFSET	 0.000000	 0.000000	 0.137269
			CHANNELS 3 Zrotation Xrotation Yrotation
			JOINT Spine2
			{
				OFFSET	 0.000000	 0.000000	 0.156879
				CHANNELS 3 Zrotation Xrotation Yrotation
				JOINT LeftShoulder
				{
					OFFSET	 0.080501	-0.002496	 0.160144
					CHANNELS 3 Zrotation Xrotation Yrotation
					JOINT LeftArm
					{
						OFFSET	 0.000000	 0.000000	 0.164363
						CHANNELS 3 Zrotation Xrotation Yrotation
						JOINT LeftForeArm
						{
							OFFSET	 0.000000	 0.000000	 0.364576
							CHANNELS 3 Zrotation Xrotation Yrotation
							JOINT LeftHand
							{
								OFFSET	 0.000000	 0.000000	 0.360812
								CHANNELS 3 Zrotation Xrotation Yrotation
								JOINT LeftHandIndex1
								{
									OFFSET	 0.000000	 0.000000	 0.086006
									CHANNELS 3 Zrotation Xrotation Yrotation
									JOINT LeftHandIndex2
									{
										OFFSET	 0.000000	 0.000000	 0.047236
										CHANNELS 3 Zrotation Xrotation Yrotation
										JOINT LeftHandIndex3
										{
											OFFSET	-0.004284	-0.000551	 0.038166
											CHANNELS 3 Zrotation Xrotation Yrotation
											End Site
											{
												OFFSET	-0.004284	-0.000551	 0.038166
											}
										}
									}
								}
							}
						}
					}
				}
				JOINT Neck
				{
					OFFSET	 0.000000	 0.000000	 0.176489
					CHANNELS 3 Zrotation Xrotation Yrotation
					JOINT Head
					{
						OFFSET	 0.000000	-0.001747	 0.077940
						CHANNELS 3 Zrotation Xrotation Yrotation
						End Site
						{
							OFFSET	 0.000000	-0.001747	 0.077940
						}
					}
				}
				JOINT RightShoulder
				{
					OFFSET	-0.080363	 0.000306	 0.159706
					CHANNELS 3 Zrotation Xrotation Yrotation
					JOINT RightArm
					{
						OFFSET	 0.000000	 0.000000	 0.164196
						CHANNELS 3 Zrotation Xrotation Yrotation
						JOINT RightForeArm
						{
							OFFSET	 0.000000	 0.000000	 0.365611
							CHANNELS 3 Zrotation Xrotation Yrotation
							JOINT RightHand
							{
								OFFSET	 0.000000	 0.000000	 0.360648
								CHANNELS 3 Zrotation Xrotation Yrotation
								JOINT RightHandIndex1
								{
									OFFSET	 0.000000	 0.000000	 0.069977
									CHANNELS 3 Zrotation Xrotation Yrotation
									JOINT RightHandIndex2
									{
										OFFSET	 0.000000	 0.000000	 0.052305
										CHANNELS 3 Zrotation Xrotation Yrotation
										JOINT RightHandIndex3
										{
											OFFSET	 0.009002	-0.000782	 0.042196
											CHANNELS 3 Zrotation Xrotation Yrotation
											End Site
											{
												OFFSET	 0.009002	-0.000782	 0.042196
											}
										}
									}
								}
							}
						}
					}
				}
			}
		}
	}
}
MOTION
Frames:    7
Frame Time: 0.03333334
 6.453986	 2.767974	-0.430181	 156.308500	-2.270236	-1.155849	 7.269661	 20.241040	-176.795700	-3.572943	-11.632510	 1.472418	 3.545873	 84.329430	-0.206788	-2.304730	 39.401270	-0.259697	 4.944044	-35.659140	-177.890300	 1.294540	-43.607070	 5.243258	 108.938400	 89.844230	-103.096700	 2.371613	 30.971990	 0.056918	 0.861443	 3.691567	 2.320386	 1.964576	-1.353294	 0.950957	 2.566385	-3.862222	-0.274026	-91.776180	 78.527400	-180.000000	 35.626770	 60.567250	-53.691990	-8.973296	-4.960724	-35.832810	 3.850148	-2.104178	-5.367280	-3.812334	 37.924440	-2.927599	-2.450526	 36.184240	 0.754587	-1.378229	 35.397820	-2.634230	 1.217680	 2.156676	-4.953054	 1.921234	-9.079167	 3.608927	 89.782100	 78.203870	-180.000000	-37.978570	 72.021330	 35.457220	 0.109374	-6.828870	 22.164580	-13.518050	-3.251148	 9.562207	 6.437017	 35.671460	-0.771858	 2.830251	 35.756010	-7.813440	-2.350882	 35.473990	 5.254307
 6.465293	 2.791723	-0.431137	 156.542200	-2.066823	-1.252582	 7.354929	 21.302450	-176.938400	-3.514407	-11.628610	 1.503048	 3.874894	 84.433620	-0.399517	-2.289999	 40.693950	-0.294392	 5.243436	-35.964910	-177.588400	 0.289187	-40.779270	 4.371895	 137.928500	 89.682860	-132.445800	 2.367085	 31.741420	 0.074296	 0.820799	 3.544669	 2.246891	 1.943676	-1.431164	 0.918404	 2.566128	-3.929295	-0.289271	-91.776180	 78.527400	-180.000000	 35.957100	 60.505630	-54.254720	-9.038130	-4.961401	-36.390360	 3.762107	-2.117939	-5.364784	-3.812334	 37.924440	-2.927599	-2.450526	 36.184240	 0.754587	-1.378229	 35.397820	-2.634230	 1.226203	 2.175678	-4.969633	 1.943217	-9.184603	 3.860523	 89.782120	 78.203870	 180.000000	-37.348600	 72.405190	 34.718590	 0.236820	-6.775963	 21.657190	-13.724430	-3.258407	 9.557097	 6.437017	 35.671460	-0.771858	 2.830251	 35.756010	-7.813440	-2.350882	 35.473990	 5.254307
 6.476575	 2.815200	-0.432017	 156.781300	-1.932901	-1.302264	 7.446614	 22.386190	-177.149300	-3.405823	-11.624040	 1.538201	 4.220371	 84.377260	-0.576900	-2.271092	 42.202690	-0.336340	 5.227438	-36.064850	-177.494800	-0.153271	-38.917900	 3.856857	 150.857000	 89.469550	-145.605500	 2.362686	 32.440150	 0.090283	 0.760991	 3.451246	 2.130147	 1.913891	-1.497247	 0.865334	 2.575420	-3.990380	-0.311158	-91.776180	 78.527400	 180.000000	 36.382240	 60.586150	-54.752350	-9.074721	-4.977079	-36.680760	 3.742781	-2.115735	-5.365278	-3.812334	 37.924440	-2.927599	-2.450526	 36.184240	 0.754587	-1.378229	 35.397820	-2.634230	 1.228060	 2.137643	-4.996264	 1.964943	-9.225437	 4.129981	 89.782100	 78.203870	-180.000000	-36.726430	 72.739320	 34.014570	 0.304329	-6.727564	 21.138950	-13.960000	-3.266010	 9.551588	 6.437017	 35.671460	-0.771858	 2.830251	 35.756010	-7.813440	-2.350882	 35.473990	 5.254307
 6.488141	 2.839103	-0.432924	 157.028500	-1.919917	-1.321182	 7.578804	 23.495450	-177.490000	-3.205453	-11.617570	 1.587058	 4.612427	 84.101360	-0.720861	-2.248473	 43.829220	-0.383504	 5.100222	-36.029360	-177.407500	-0.191107	-37.971250	 3.659421	 153.029500	 89.361420	-147.836500	 2.360470	 32.776920	 0.098051	 0.692404	 3.387830	 2.008748	 1.882706	-1.551525	 0.791508	 2.598041	-4.029046	-0.339758	-91.776180	 78.527400	-180.000000	 36.850980	 60.796920	-55.116200	-9.108768	-4.990957	-36.731370	 3.757976	-2.115379	-5.365331	-3.812334	 37.924440	-2.927599	-2.450526	 36.184240	 0.754587	-1.378229	 35.397820	-2.634230	 1.240418	 2.089830	-5.018241	 1.991043	-9.239982	 4.371677	 89.782100	 78.203850	-180.000000	-36.152880	 73.029880	 33.378030	 0.330281	-6.674784	 20.615730	-14.199690	-3.273993	 9.545647	 6.437017	 35.671460	-0.771858	 2.830251	 35.756010	-7.813440	-2.350882	 35.473990	 5.254307
 6.501750	 2.866319	-0.433929	 157.302900	-1.967091	-1.323652	 7.765517	 24.755420	-177.993900	-2.869032	-11.607660	 1.658737	 5.068403	 83.467690	-0.795651	-2.224971	 45.352200	-0.429719	 4.934809	-35.812380	-177.460600	 0.141162	-37.773570	 3.766228	 149.958400	 89.427670	-144.589900	 2.362453	 32.475230	 0.091089	 0.622067	 3.328284	 1.906822	 1.853560	-1.595418	 0.694510	 2.639175	-4.027897	-0.376936	-91.776180	 78.527420	-180.000000	 37.533330	 61.111350	-55.576500	-9.130111	-4.987555	-36.568780	 3.777597	-2.116235	-5.365108	-3.812334	 37.924440	-2.927599	-2.450526	 36.184240	 0.754587	-1.378229	 35.397820	-2.634230	 1.272845	 2.077815	-5.037469	 2.033508	-9.259843	 4.603175	 89.782120	 78.203870	 180.000000	-35.633630	 73.298650	 32.806510	 0.303598	-6.611588	 20.040220	-14.464120	-3.283335	 9.538536	 6.437017	 35.671460	-0.771858	 2.830251	 35.756010	-7.813440	-2.350882	 35.473990	 5.254307
 6.515435	 2.892984	-0.434904	 157.563400	-2.027070	-1.321838	 7.975048	 25.974230	-178.573700	-2.462642	-11.596020	 1.738720	 5.475889	 82.512730	-0.759267	-2.203750	 46.608670	-0.469493	 4.867777	-35.443670	-177.537400	 0.597748	-38.178880	 4.077044	 130.934100	 89.661960	-125.258300	 2.368004	 31.588780	 0.070835	 0.555616	 3.267454	 1.862320	 1.826646	-1.619800	 0.591390	 2.694652	-3.970394	-0.421201	-91.776180	 78.527400	 180.000000	 38.270920	 61.493050	-55.903030	-9.140700	-4.953277	-36.224530	 3.774813	-2.118970	-5.364590	-3.812334	 37.924440	-2.927599	-2.450526	 36.184240	 0.754587	-1.378229	 35.397820	-2.634230	 1.325377	 2.150489	-5.070358	 2.084072	-9.310521	 4.813547	 89.782100	 78.203870	-180.000000	-35.263470	 73.506100	 32.403620	 0.234035	-6.548625	 19.511440	-14.707540	-3.292437	 9.531376	 6.437017	 35.671460	-0.771858	 2.830251	 35.756010	-7.813440	-2.350882	 35.473990	 5.254307
 6.529476	 2.919833	-0.435835	 157.826600	-2.092571	-1.302613	 8.212168	 27.164130	-179.233700	-2.049789	-11.584570	 1.814485	 5.761123	 81.218610	-0.595070	-2.179268	 47.940920	-0.513467	 4.825621	-34.821140	-177.683500	 1.105235	-38.982400	 4.497347	 64.554430	 89.748210	-58.541100	 2.374467	 30.458520	 0.045432	 0.476707	 3.180112	 1.840645	 1.793165	-1.642131	 0.479442	 2.763459	-3.879941	-0.477526	-91.776180	 78.527400	-180.000000	 39.041720	 61.945130	-56.083610	-9.132069	-4.902853	-35.704200	 3.772995	-2.094538	-5.369145	-3.812334	 37.924440	-2.927599	-2.450526	 36.184240	 0.754587	-1.378229	 35.397820	-2.634230	 1.391974	 2.295524	-5.112869	 2.141653	-9.393946	 5.009492	 89.782090	 78.203830	-180.000000	-34.838680	 73.687520	 31.928620	 0.170295	-6.487160	 19.029700	-14.929630	-3.300598	 9.524633	 6.437017	 35.671460	-0.771858	 2.830251	 35.756010	-7.813440	-2.350882	 35.473990	 5.254307
